<svg xmlns="http://www.w3.org/2000/svg" xmlns:xlink="http://www.w3.org/1999/xlink" viewBox="0 0 129.13 32.4"><defs><style>.cls-1{fill:url(#Sfumatura_senza_nome_13);}.cls-2{fill:url(#Sfumatura_senza_nome_13-2);}.cls-3{fill:url(#Sfumatura_senza_nome_13-3);}.cls-4{fill:url(#Sfumatura_senza_nome_13-4);}.cls-5{fill:url(#Sfumatura_senza_nome_13-5);}.cls-6{fill:url(#Sfumatura_senza_nome_13-6);}</style><linearGradient id="Sfumatura_senza_nome_13" x1="117.93" y1="45.68" x2="117.93" y2="-11.32" gradientTransform="matrix(1, 0, 0, -1, 0, 33.36)" gradientUnits="userSpaceOnUse"><stop offset="0" stop-color="#283863"/><stop offset="0.14" stop-color="#264373"/><stop offset="0.52" stop-color="#205e9b"/><stop offset="0.82" stop-color="#1d6fb3"/><stop offset="1" stop-color="#1c75bc"/></linearGradient><linearGradient id="Sfumatura_senza_nome_13-2" x1="93.52" y1="45.68" x2="93.52" y2="-11.32" xlink:href="#Sfumatura_senza_nome_13"/><linearGradient id="Sfumatura_senza_nome_13-3" x1="76.22" y1="45.68" x2="76.22" y2="-11.32" xlink:href="#Sfumatura_senza_nome_13"/><linearGradient id="Sfumatura_senza_nome_13-4" x1="66.64" y1="45.68" x2="66.64" y2="-11.32" xlink:href="#Sfumatura_senza_nome_13"/><linearGradient id="Sfumatura_senza_nome_13-5" x1="51.75" y1="45.68" x2="51.75" y2="-11.32" xlink:href="#Sfumatura_senza_nome_13"/><linearGradient id="Sfumatura_senza_nome_13-6" x1="21.96" y1="45.68" x2="21.96" y2="-11.32" xlink:href="#Sfumatura_senza_nome_13"/></defs><g id="Livello_2" data-name="Livello 2"><g id="Livello_1-2" data-name="Livello 1"><path class="cls-1" d="M118.06,32.4a10.94,10.94,0,0,1-6.21-1.71,10.82,10.82,0,0,1-3.87-4.5,14.48,14.48,0,0,1-1.26-6,12.86,12.86,0,0,1,1.71-6.44,13.12,13.12,0,0,1,4.77-4.85,13.26,13.26,0,0,1,7-1.85,9.78,9.78,0,0,1,4.5,1,6.48,6.48,0,0,1,3.73,5.66,6,6,0,0,1-1.44,4,8.89,8.89,0,0,1-3.82,2.52A15.09,15.09,0,0,1,118,21a13.56,13.56,0,0,1-6.39-1.44,15.73,15.73,0,0,0,1.08,5.4,9.48,9.48,0,0,0,2.92,4,7.57,7.57,0,0,0,4.77,1.53A6.4,6.4,0,0,0,124,29.38a11.05,11.05,0,0,0,3-3,12.89,12.89,0,0,0,1.8-4.05l.36.27A12.76,12.76,0,0,1,126.7,28a11,11,0,0,1-4,3.29A10.81,10.81,0,0,1,118.06,32.4Zm-1.53-12.15a7.1,7.1,0,0,0,5.31-2.07,7.83,7.83,0,0,0,2.07-5.72,5.29,5.29,0,0,0-1.12-3.64A3.45,3.45,0,0,0,120,7.52a6.59,6.59,0,0,0-4.5,1.71,10.42,10.42,0,0,0-2.88,4.36,15,15,0,0,0-1,5.53A12.36,12.36,0,0,0,116.53,20.25Z"/><path class="cls-2" d="M96.47,6.84a7.34,7.34,0,0,1,4.68,1.48A8.26,8.26,0,0,1,104,12.24a14.63,14.63,0,0,1,1,5.35,18.57,18.57,0,0,1-1.4,7.16,13,13,0,0,1-3.91,5.44,8.82,8.82,0,0,1-5.76,2.07c-.15,0-1-.09-2.39-.27a44.33,44.33,0,0,0-6.12-.63,9.79,9.79,0,0,0-2.7.32A10.88,10.88,0,0,0,83.6,29a15.18,15.18,0,0,0,.22-2.88V6.7a5.63,5.63,0,0,0-.4-2.2,8.2,8.2,0,0,0-1.31-2.34A19.93,19.93,0,0,0,88.32.09v15.7a20,20,0,0,1,3.24-6.34A6.12,6.12,0,0,1,96.47,6.84Zm4,13.23q.09-1.53.09-2.16A14.48,14.48,0,0,0,99.21,11q-1.3-2.43-3.33-2.43a4.61,4.61,0,0,0-3.1,1.39,11.92,11.92,0,0,0-2.75,4,23.1,23.1,0,0,0-1.71,6V30.28a6.19,6.19,0,0,0,2.66.5,8.67,8.67,0,0,0,4.18-1.13,10.06,10.06,0,0,0,3.56-3.55A13.34,13.34,0,0,0,100.47,20.07Z"/><path class="cls-3" d="M73.07,31.68A10.88,10.88,0,0,0,74,29a15.18,15.18,0,0,0,.22-2.88V6.7a5.63,5.63,0,0,0-.4-2.2,8.2,8.2,0,0,0-1.31-2.34A19.93,19.93,0,0,0,78.74.09V24.66a30,30,0,0,0,.18,3.87,14,14,0,0,0,1,3.15Z"/><path class="cls-4" d="M63.49,31.68a10.88,10.88,0,0,0,.95-2.7,15.18,15.18,0,0,0,.22-2.88V6.7a5.63,5.63,0,0,0-.4-2.2A8.2,8.2,0,0,0,63,2.16,19.93,19.93,0,0,0,69.16.09V24.66a30,30,0,0,0,.18,3.87,14,14,0,0,0,1,3.15Z"/><path class="cls-5" d="M51.88,32.4a10.94,10.94,0,0,1-6.21-1.71,10.82,10.82,0,0,1-3.87-4.5,14.48,14.48,0,0,1-1.26-6,12.86,12.86,0,0,1,1.71-6.44A13.12,13.12,0,0,1,47,8.87,13.26,13.26,0,0,1,54,7a9.78,9.78,0,0,1,4.5,1,6.48,6.48,0,0,1,3.73,5.66,6,6,0,0,1-1.44,4A8.89,8.89,0,0,1,57,20.16a15.09,15.09,0,0,1-5.13.85,13.56,13.56,0,0,1-6.39-1.44A15.73,15.73,0,0,0,46.53,25a9.48,9.48,0,0,0,2.92,4,7.57,7.57,0,0,0,4.77,1.53,6.4,6.4,0,0,0,3.56-1.13,11.05,11.05,0,0,0,3-3,12.89,12.89,0,0,0,1.8-4.05l.36.27A12.76,12.76,0,0,1,60.52,28a11,11,0,0,1-4,3.29A10.81,10.81,0,0,1,51.88,32.4ZM50.35,20.25a7.1,7.1,0,0,0,5.31-2.07,7.83,7.83,0,0,0,2.07-5.72,5.29,5.29,0,0,0-1.12-3.64,3.45,3.45,0,0,0-2.79-1.3,6.59,6.59,0,0,0-4.5,1.71,10.42,10.42,0,0,0-2.88,4.36,15,15,0,0,0-.95,5.53A12.36,12.36,0,0,0,50.35,20.25Z"/><path class="cls-6" d="M3.46,4.72A17.9,17.9,0,0,0,1.93,2.29,10.48,10.48,0,0,0,0,0H8.14a2.65,2.65,0,0,0-.45,1.39A3.61,3.61,0,0,0,8,2.61l9.09,22.77,5.58-12.33-1.8-4.77A38.49,38.49,0,0,0,18.54,3.1a15.4,15.4,0,0,0-2.25-3h7.47A17.36,17.36,0,0,0,24,2.84a8.09,8.09,0,0,0,.54,1.88l7.29,20.52,6.62-17a13.19,13.19,0,0,0,.9-4.86A10.84,10.84,0,0,0,38.88.09h5a30.69,30.69,0,0,0-2.61,3.42A26.64,26.64,0,0,0,39.6,7.06L30,31.68h-.4L22.9,13.86l-8,17.82h-.41Z"/></g></g></svg>